<svg xmlns="http://www.w3.org/2000/svg"  viewBox="0 0 64 64" width="512px" height="512px"><linearGradient id="wKBVx7gPGw~dczEEx~U5~a" x1="32" x2="32" y1="11" y2="53.67" gradientUnits="userSpaceOnUse" spreadMethod="reflect"><stop offset="0" stop-color="#1a6dff"/><stop offset="1" stop-color="#c822ff"/></linearGradient><path fill="url(#wKBVx7gPGw~dczEEx~U5~a)" d="M56,15.184v-1.183C56,12.347,54.654,11,53,11H11c-1.654,0-3,1.347-3,3.001v1.183 C6.837,15.597,6,16.696,6,18v32c0,1.657,1.343,3,3,3h46c1.657,0,3-1.343,3-3V18C58,16.696,57.163,15.597,56,15.184z M9,17h46 c0.395,0,0.729,0.234,0.892,0.567l-22.138,15.94c-1.049,0.754-2.459,0.754-3.508,0L8.108,17.567C8.271,17.234,8.605,17,9,17z M11,13 h42c0.552,0,1,0.449,1,1.001V15H10v-0.999C10,13.449,10.448,13,11,13z M55,51H9c-0.552,0-1-0.448-1-1V19.953L29.078,35.13 c0.874,0.629,1.897,0.943,2.922,0.943s2.048-0.314,2.922-0.943L56,19.953V50C56,50.552,55.552,51,55,51z"/><linearGradient id="wKBVx7gPGw~dczEEx~U5~b" x1="49" x2="49" y1="11" y2="53.67" gradientUnits="userSpaceOnUse" spreadMethod="reflect"><stop offset="0" stop-color="#1a6dff"/><stop offset="1" stop-color="#c822ff"/></linearGradient><path fill="url(#wKBVx7gPGw~dczEEx~U5~b)" d="M44 47H54V49H44z"/><linearGradient id="wKBVx7gPGw~dczEEx~U5~c" x1="50" x2="50" y1="11" y2="53.67" gradientUnits="userSpaceOnUse" spreadMethod="reflect"><stop offset="0" stop-color="#1a6dff"/><stop offset="1" stop-color="#c822ff"/></linearGradient><path fill="url(#wKBVx7gPGw~dczEEx~U5~c)" d="M46 43H54V45H46z"/><linearGradient id="wKBVx7gPGw~dczEEx~U5~d" x1="19" x2="19" y1="11" y2="53.67" gradientUnits="userSpaceOnUse" spreadMethod="reflect"><stop offset="0" stop-color="#1a6dff"/><stop offset="1" stop-color="#c822ff"/></linearGradient><path fill="url(#wKBVx7gPGw~dczEEx~U5~d)" d="M18 45H20V49H18z"/><linearGradient id="wKBVx7gPGw~dczEEx~U5~e" x1="15" x2="15" y1="11" y2="53.67" gradientUnits="userSpaceOnUse" spreadMethod="reflect"><stop offset="0" stop-color="#1a6dff"/><stop offset="1" stop-color="#c822ff"/></linearGradient><path fill="url(#wKBVx7gPGw~dczEEx~U5~e)" d="M14 45H16V49H14z"/><linearGradient id="wKBVx7gPGw~dczEEx~U5~f" x1="11" x2="11" y1="11" y2="53.67" gradientUnits="userSpaceOnUse" spreadMethod="reflect"><stop offset="0" stop-color="#1a6dff"/><stop offset="1" stop-color="#c822ff"/></linearGradient><path fill="url(#wKBVx7gPGw~dczEEx~U5~f)" d="M10 45H12V49H10z"/><linearGradient id="wKBVx7gPGw~dczEEx~U5~g" x1="32" x2="32" y1="20.167" y2="31.22" gradientUnits="userSpaceOnUse" spreadMethod="reflect"><stop offset="0" stop-color="#6dc7ff"/><stop offset="1" stop-color="#e6abff"/></linearGradient><path fill="url(#wKBVx7gPGw~dczEEx~U5~g)" d="M20.062,20h23.876c0.969,0,1.374,1.238,0.593,1.811l-11.347,8.321 c-0.705,0.517-1.663,0.517-2.368,0l-11.347-8.322C18.688,21.238,19.093,20,20.062,20z"/></svg>